<?xml version="1.0" encoding="UTF-8"?>
<svg xmlns="http://www.w3.org/2000/svg" width="1920.6363636" height="915.8371305" version="1.1" xmlns:i="http://ns.adobe.com/AdobeIllustrator/10.0/" xmlns:xlink="http://www.w3.org/1999/xlink" viewBox="0 0 1920.6363636 915.8371305">
  <defs>
    <style>
      .cls-1 {
        fill: #758e95;
      }

      .cls-2 {
        fill: url(#linear-gradient);
      }
    </style>
    <linearGradient id="linear-gradient" x1="960.3181818" y1="589.2327559" x2="960.3181818" y2="0" gradientUnits="userSpaceOnUse">
      <stop offset=".0049303" stop-color="#047774"/>
      <stop offset=".5" stop-color="#44d9bc"/>
      <stop offset="1" stop-color="#018297"/>
    </linearGradient>
  </defs>
  <!-- Generator: Adobe Illustrator 28.6.0, SVG Export Plug-In . SVG Version: 1.2.0 Build 709)  -->
  <g>
    <g id="Layer_1">
      <g>
        <path class="cls-2" d="M759.7802334,578.0865301l-16.2008907-34.0293348V.4251436h102.1902337v577.6613866h-85.989343ZM724.5744517,296.8280981l-122.5451989-223.7472172v197.3753346l122.5451989,233.1052437v-206.7333612ZM187.2449099,588.72161v-79.970803c-56.1838582-4.2530583-64.699711-45.0895583-64.699711-130.1653294V.8502871H0v378.5871003c0,108.0448825,28.143855,205.8814513,187.2449099,209.2842226M391.6253773,379.0950009V.5095232h-122.5451989v378.5854777c0,85.9276809-2.5962966,127.614468-62.1034144,130.1669521v79.970803c159.9318698-3.4043939,184.6486133-101.2409627,184.6486133-210.1377551M582.9205098,34.0293348L565.8888042,0h-88.4817877v577.6630093h105.5134933V34.0293348ZM1057.5235261.6799052h-122.5451989v577.6630093h122.5451989V.6799052ZM1678.5576698.6799052h-122.5451989v577.6630093h122.5451989V.6799052ZM1702.8590059.6799052h-4.2579264v73.1652605h5.0887413c65.426674,0,94.4013439,17.0154788,94.4013439,62.9569469v299.4649618c0,54.4475848-21.289632,68.9105795-96.1668256,68.9105795h-3.3232596v73.1652605h3.3232596c185.4794282,0,218.7120245-68.9105795,218.7120245-194.8228506v-199.0759089c0-123.359787-44.2408939-183.7642498-217.7773578-183.7642498M1516.1333553.6799052h-338.557075v77.4183189h338.557075V.6799052ZM1408.8543803,94.2634157h-122.5451989v484.0794988h122.5451989V94.2634157ZM1207.2779132,506.027941h-130.126385v71.4630636h130.126385v-71.4630636Z"/>
        <g>
          <rect class="cls-1" x="6.0234081" y="727.2242969" width="1909.1088068" height="5.1049682"/>
          <g>
            <g>
              <polygon class="cls-1" points="1223.8942114 851.1796094 1223.8942114 857.9867745 1245.0799915 857.9867745 1245.0799915 914.1365563 1252.7650294 914.1365563 1252.7650294 857.9867745 1273.2238466 857.9867745 1273.2238466 851.1796094 1223.8942114 851.1796094"/>
              <path class="cls-1" d="M1453.4068297,883.5927496v-25.5232181h19.5241503c10.1774826,0,16.2008907,4.254681,16.2008907,11.9105106,0,8.5077394-6.0234081,13.6127075-16.2008907,13.6127075h-19.5241503ZM1496.8169087,869.9800421c0-11.0586008-9.4505196-18.716053-23.0551137-18.716053h-27.2091882v62.9553242h6.854223v-24.6713083h18.6933354l17.8625205,24.6713083h9.3466677l-19.5241503-25.5215955c9.3466677-1.702197,17.0317056-8.5077394,17.0317056-18.7176757"/>
              <path class="cls-1" d="M1151.0940551,879.3396913c-13.708446-3.4027712-17.0317056-5.9552553-17.0317056-12.7607977,0-5.1049682,5.0887413-10.2083136,13.6045941-10.2083136,5.9195562,0,11.8391124,2.5524841,17.8625205,6.8055424l4.2579264-5.1049682c-6.0234081-5.1033455-12.7737792-7.6558296-22.1204469-7.6558296-11.9429643,0-21.289632,6.8055424-21.289632,17.0138561,0,11.0602235,6.7503711,15.3149045,21.289632,18.7176757,13.6045941,2.5524841,17.0317056,5.9552553,17.0317056,11.9105106,0,6.8055424-6.0234081,11.0602235-14.5392609,11.0602235s-15.2662239-3.4043939-21.1857802-9.3596492l-5.1925932,5.9552553c7.6850379,5.9552553,16.2008907,9.3596492,26.3783733,9.3596492,12.7737792,0,21.289632-6.8071651,21.289632-17.8657659,0-9.3596492-5.9195562-14.4629947-20.3549652-17.8673886"/>
              <path class="cls-1" d="M1355.786078,908.6908242c-14.5392609,0-24.7167435-11.9105106-24.7167435-26.3735053,0-14.461372,10.1774826-25.5215955,24.7167435-25.5215955,14.435409,0,24.6128917,11.9105106,24.6128917,26.3735053s-10.1774826,25.5215955-24.6128917,25.5215955M1355.786078,849.9885583c-19.6280022,0-32.4017814,15.3149045-32.4017814,33.1806704,0,17.0138561,12.7737792,32.3287606,32.4017814,32.3287606,19.5241503,0,32.2979295-15.3149045,32.2979295-33.1806704,0-17.0138561-12.7737792-32.3287606-32.2979295-32.3287606"/>
              <rect class="cls-1" x="1556.1163227" y="850.5824612" width="6.854223" height="63.807234"/>
              <path class="cls-1" d="M1752.188641,879.2536889c-13.708446-3.4027712-17.0317056-5.9552553-17.0317056-12.7607977,0-5.1049682,5.0887413-10.2083136,13.6045941-10.2083136,5.9195562,0,11.8391124,2.5524841,17.8625205,6.8055424l4.2579264-5.1049682c-6.0234081-5.1033455-12.7737792-7.6558296-22.1204469-7.6558296-11.9429643,0-21.289632,6.8055424-21.289632,17.0138561,0,11.0602235,6.7503711,15.3149045,21.289632,18.7176757,13.6045941,2.5524841,17.0317056,5.9552553,17.0317056,11.9105106,0,6.8055424-6.0234081,11.0602235-14.5392609,11.0602235s-15.2662239-3.4043939-21.1857802-9.3596492l-5.1925932,5.9552553c7.6850379,5.9552553,16.2008907,9.3596492,26.3783733,9.3596492,12.7737792,0,21.289632-6.8071651,21.289632-17.8657659,0-9.3596492-5.9195562-14.4629947-20.3549652-17.8673886"/>
              <polygon class="cls-1" points="1625.3855157 851.0936071 1625.3855157 914.0505539 1671.2880394 914.0505539 1671.2880394 908.0952986 1632.1358868 908.0952986 1632.1358868 885.9748517 1667.030113 885.9748517 1667.030113 879.1693093 1632.1358868 879.1693093 1632.1358868 857.9007722 1671.2880394 857.9007722 1671.2880394 851.0936071 1625.3855157 851.0936071"/>
            </g>
            <g>
              <polygon class="cls-1" points="307.6092197 851.1796094 307.6092197 902.2260457 267.5224004 851.1796094 260.7720293 851.1796094 260.7720293 914.1365563 267.5224004 914.1365563 267.5224004 862.2398329 309.2708495 914.1365563 314.3595908 914.1365563 314.3595908 851.1796094 307.6092197 851.1796094"/>
              <path class="cls-1" d="M193.4760217,851.1796094v36.5834416c0,14.4629947-7.6850379,21.2685371-18.7971873,21.2685371-12.7737792,0-19.5241503-7.6574522-19.5241503-21.2685371v-36.5834416h-7.6850379v36.5834416c0,17.8657659,11.1121494,28.0740795,26.3783733,28.0740795,16.2008907,0,26.3783733-10.2083136,26.3783733-28.0740795v-36.5834416h-6.7503711Z"/>
              <polygon class="cls-1" points="376.0475977 851.1796094 376.0475977 914.1365563 418.5230099 914.1365563 418.5230099 908.181301 382.7979689 908.181301 382.7979689 851.1796094 376.0475977 851.1796094"/>
              <polygon class="cls-1" points="732.674897 851.1796094 732.674897 857.9867745 753.8606772 857.9867745 753.8606772 914.9868434 761.5457151 914.9868434 761.5457151 857.9867745 782.8353471 857.9867745 782.8353471 851.1796094 732.674897 851.1796094"/>
              <rect class="cls-1" x="667.8713342" y="850.5824612" width="6.854223" height="63.807234"/>
              <polygon class="cls-1" points="598.809845 851.1796094 575.7547313 886.060854 552.8034694 851.1796094 545.1184315 851.1796094 545.1184315 914.1365563 551.9726545 914.1365563 551.9726545 863.0917427 574.9239164 897.1210775 575.7547313 897.1210775 598.809845 863.0917427 598.809845 914.1365563 605.5602161 914.1365563 605.5602161 851.1796094 598.809845 851.1796094"/>
              <rect class="cls-1" x="476.4723498" y="850.5824612" width="6.854223" height="63.807234"/>
              <polygon class="cls-1" points="839.3307608 851.1796094 839.3307608 914.1365563 885.2332845 914.1365563 885.2332845 908.181301 846.081132 908.181301 846.081132 886.060854 880.9753581 886.060854 880.9753581 879.2553116 846.081132 879.2553116 846.081132 857.9867745 885.2332845 857.9867745 885.2332845 851.1796094 839.3307608 851.1796094"/>
              <path class="cls-1" d="M965.510775,908.0952986h-15.3700758v-50.1945265h15.3700758c16.0970388,0,26.2745215,11.0602235,26.2745215,24.6713083,0,14.4629947-10.1774826,25.5232181-26.2745215,25.5232181M965.510775,851.0936071h-22.1204469v63.807234h22.1204469c19.5241503,0,33.9595594-14.4629947,33.9595594-32.3287606s-14.435409-31.4784734-33.9595594-31.4784734"/>
            </g>
          </g>
        </g>
      </g>
    </g>
  </g>

</svg>