<svg width="183" height="32" viewBox="0 0 183 32" fill="none" xmlns="http://www.w3.org/2000/svg">
<path d="M1.452 24V8.6H4.686C7.20867 8.6 9.07133 9.28933 10.274 10.668C11.4913 12.0467 12.1 13.924 12.1 16.3C12.1 18.676 11.4913 20.5533 10.274 21.932C9.07133 23.3107 7.20867 24 4.686 24H1.452ZM3.3 22.306H4.642C5.99133 22.306 7.06933 22.0567 7.876 21.558C8.69733 21.0593 9.29133 20.3627 9.658 19.468C10.0247 18.5733 10.208 17.5173 10.208 16.3C10.208 15.0827 10.0247 14.0267 9.658 13.132C9.29133 12.2373 8.69733 11.5407 7.876 11.042C7.06933 10.5433 5.99133 10.294 4.642 10.294H3.3V22.306ZM17.4594 11.152C17.0194 11.152 16.6527 11.0053 16.3594 10.712C16.0661 10.4187 15.9194 10.0667 15.9194 9.656C15.9194 9.23067 16.0661 8.87867 16.3594 8.6C16.6527 8.30667 17.0194 8.16 17.4594 8.16C17.8847 8.16 18.2441 8.30667 18.5374 8.6C18.8454 8.87867 18.9994 9.23067 18.9994 9.656C18.9994 10.0667 18.8454 10.4187 18.5374 10.712C18.2441 11.0053 17.8847 11.152 17.4594 11.152ZM13.1914 24V22.416H16.6674V15.222C16.6674 14.8553 16.4841 14.672 16.1174 14.672H13.5654V13.088H16.5574C17.8627 13.088 18.5154 13.7407 18.5154 15.046V22.416H21.9914V24H13.1914ZM28.3848 20.788C27.6221 20.788 26.9401 20.6487 26.3388 20.37L25.5908 21.272C25.4295 21.492 25.3855 21.712 25.4588 21.932C25.5468 22.1373 25.7595 22.24 26.0968 22.24H28.9788C30.2841 22.24 31.3401 22.4967 32.1468 23.01C32.9535 23.5087 33.3568 24.308 33.3568 25.408C33.3568 26.068 33.1881 26.6767 32.8508 27.234C32.5135 27.7913 31.9781 28.2387 31.2448 28.576C30.5261 28.928 29.5801 29.104 28.4068 29.104C26.8815 29.104 25.6568 28.818 24.7328 28.246C23.8088 27.674 23.3468 26.8013 23.3468 25.628C23.3468 25.2027 23.4495 24.8067 23.6548 24.44C23.8748 24.088 24.1461 23.7727 24.4688 23.494C24.0435 23.23 23.7795 22.834 23.6768 22.306C23.5888 21.778 23.7501 21.2573 24.1608 20.744L25.1508 19.512C24.4468 18.7787 24.0948 17.8767 24.0948 16.806C24.0948 16.102 24.2635 15.4493 24.6008 14.848C24.9381 14.232 25.4221 13.7407 26.0528 13.374C26.6981 13.0073 27.4755 12.824 28.3848 12.824C28.9715 12.824 29.5141 12.912 30.0128 13.088H34.1048V14.474L32.0588 14.54V14.694C32.4401 15.3247 32.6308 16.0287 32.6308 16.806C32.6308 17.51 32.4621 18.17 32.1248 18.786C31.8021 19.3873 31.3181 19.8713 30.6728 20.238C30.0421 20.6047 29.2795 20.788 28.3848 20.788ZM28.3848 19.204C29.1035 19.204 29.6901 18.9913 30.1448 18.566C30.6141 18.1407 30.8488 17.554 30.8488 16.806C30.8488 16.058 30.6141 15.4787 30.1448 15.068C29.6901 14.6427 29.1035 14.43 28.3848 14.43C27.6515 14.43 27.0501 14.6427 26.5808 15.068C26.1115 15.4787 25.8768 16.058 25.8768 16.806C25.8768 17.554 26.1115 18.1407 26.5808 18.566C27.0501 18.9913 27.6515 19.204 28.3848 19.204ZM25.1728 25.562C25.1728 26.2073 25.4735 26.6913 26.0748 27.014C26.6761 27.3367 27.4535 27.498 28.4068 27.498C29.3308 27.498 30.0788 27.3147 30.6508 26.948C31.2375 26.5813 31.5308 26.09 31.5308 25.474C31.5308 24.99 31.3255 24.5793 30.9148 24.242C30.5041 23.9193 29.7488 23.758 28.6488 23.758H26.1628C25.5028 24.242 25.1728 24.8433 25.1728 25.562ZM39.4422 11.152C39.0022 11.152 38.6356 11.0053 38.3422 10.712C38.0489 10.4187 37.9022 10.0667 37.9022 9.656C37.9022 9.23067 38.0489 8.87867 38.3422 8.6C38.6356 8.30667 39.0022 8.16 39.4422 8.16C39.8676 8.16 40.2269 8.30667 40.5202 8.6C40.8282 8.87867 40.9822 9.23067 40.9822 9.656C40.9822 10.0667 40.8282 10.4187 40.5202 10.712C40.2269 11.0053 39.8676 11.152 39.4422 11.152ZM35.1742 24V22.416H38.6502V15.222C38.6502 14.8553 38.4669 14.672 38.1002 14.672H35.5482V13.088H38.5402C39.8456 13.088 40.4982 13.7407 40.4982 15.046V22.416H43.9742V24H35.1742ZM48.8496 24C47.8523 24 47.0676 23.758 46.4956 23.274C45.9236 22.79 45.6376 21.9173 45.6376 20.656V14.672H42.8656V13.088H44.5156C45.2636 13.088 45.6963 12.7213 45.8136 11.988L46.1216 10.294H47.4856V13.088H51.8416V14.672H47.4856V20.656C47.4856 21.272 47.625 21.7047 47.9036 21.954C48.197 22.2033 48.6956 22.328 49.3996 22.328H51.8416V24H48.8496ZM57.773 24.264C56.9077 24.264 56.189 24.11 55.617 23.802C55.045 23.494 54.6197 23.0907 54.341 22.592C54.0624 22.0787 53.923 21.5213 53.923 20.92C53.923 19.8053 54.3264 18.962 55.133 18.39C55.9544 17.8033 57.047 17.51 58.411 17.51H61.403V17.29C61.403 15.3833 60.5304 14.43 58.785 14.43C58.081 14.43 57.487 14.584 57.003 14.892C56.5337 15.2 56.233 15.684 56.101 16.344H54.209C54.2824 15.6107 54.5244 14.98 54.935 14.452C55.3604 13.924 55.903 13.5207 56.563 13.242C57.223 12.9633 57.9637 12.824 58.785 12.824C60.3397 12.824 61.469 13.2347 62.173 14.056C62.8917 14.8627 63.251 15.9407 63.251 17.29V24H61.667L61.513 22.306H61.359C61.0364 22.834 60.6037 23.296 60.061 23.692C59.533 24.0733 58.7704 24.264 57.773 24.264ZM58.103 22.636C58.807 22.636 59.401 22.4673 59.885 22.13C60.3837 21.7927 60.7577 21.3453 61.007 20.788C61.271 20.2307 61.403 19.622 61.403 18.962H58.565C57.5677 18.962 56.8637 19.1307 56.453 19.468C56.057 19.8053 55.859 20.2527 55.859 20.81C55.859 21.382 56.0497 21.8293 56.431 22.152C56.8124 22.4747 57.3697 22.636 58.103 22.636ZM64.7384 24V22.416H68.4564V10.294C68.4564 9.92733 68.2731 9.744 67.9064 9.744H65.1344V8.16H68.3464C68.9771 8.16 69.4611 8.32867 69.7984 8.666C70.1358 9.00333 70.3044 9.48733 70.3044 10.118V22.416H74.0224V24H64.7384Z" fill="#00FE02"/>
<path d="M75.8154 8.35938H80.9932C82.1676 8.35938 83.1595 8.53841 83.9688 8.89648C84.7852 9.25456 85.4046 9.78451 85.8271 10.4863C86.2568 11.181 86.4717 12.0368 86.4717 13.0537C86.4717 13.7699 86.3249 14.4251 86.0312 15.0195C85.7448 15.6068 85.3294 16.1081 84.7852 16.5234C84.248 16.9316 83.6035 17.236 82.8516 17.4365L82.2715 17.6621H77.4053L77.3838 15.9756H81.0576C81.8024 15.9756 82.4219 15.8467 82.916 15.5889C83.4102 15.3239 83.7826 14.9694 84.0332 14.5254C84.2839 14.0814 84.4092 13.5908 84.4092 13.0537C84.4092 12.4521 84.291 11.9258 84.0547 11.4746C83.8184 11.0234 83.446 10.6761 82.9375 10.4326C82.4362 10.182 81.7881 10.0566 80.9932 10.0566H77.8887V24H75.8154V8.35938ZM84.957 24L81.1543 16.9102L83.3135 16.8994L87.1699 23.8711V24H84.957ZM93.8945 24.2148C93.0853 24.2148 92.3512 24.0788 91.6924 23.8066C91.0407 23.5273 90.4785 23.137 90.0059 22.6357C89.5404 22.1344 89.1823 21.54 88.9316 20.8525C88.681 20.165 88.5557 19.4131 88.5557 18.5967V18.1455C88.5557 17.2002 88.6953 16.3587 88.9746 15.6211C89.2539 14.8763 89.6335 14.2461 90.1133 13.7305C90.5931 13.2148 91.1374 12.8245 91.7461 12.5596C92.3548 12.2946 92.985 12.1621 93.6367 12.1621C94.4674 12.1621 95.1836 12.3053 95.7852 12.5918C96.3939 12.8783 96.8916 13.2793 97.2783 13.7949C97.665 14.3034 97.9515 14.9049 98.1377 15.5996C98.3239 16.2871 98.417 17.0391 98.417 17.8555V18.7471H89.7373V17.125H96.4297V16.9746C96.401 16.459 96.2936 15.9577 96.1074 15.4707C95.9284 14.9837 95.6419 14.5827 95.248 14.2676C94.8542 13.9525 94.3171 13.7949 93.6367 13.7949C93.1855 13.7949 92.7702 13.8916 92.3906 14.085C92.0111 14.2712 91.6852 14.5505 91.4131 14.9229C91.141 15.2952 90.9297 15.75 90.7793 16.2871C90.6289 16.8242 90.5537 17.4437 90.5537 18.1455V18.5967C90.5537 19.1481 90.6289 19.6673 90.7793 20.1543C90.9368 20.6341 91.1624 21.0566 91.4561 21.4219C91.7568 21.7871 92.1185 22.0736 92.541 22.2812C92.9707 22.4889 93.4577 22.5928 94.002 22.5928C94.7038 22.5928 95.2982 22.4495 95.7852 22.1631C96.2721 21.8766 96.6982 21.4935 97.0635 21.0137L98.2666 21.9697C98.016 22.3493 97.6973 22.7109 97.3105 23.0547C96.9238 23.3984 96.4476 23.6777 95.8818 23.8926C95.3232 24.1074 94.6608 24.2148 93.8945 24.2148ZM102.735 7.5V24H100.737V7.5H102.735ZM109.836 12.377L104.766 17.8018L101.93 20.7451L101.769 18.6289L103.799 16.2012L107.408 12.377H109.836ZM108.021 24L103.874 18.457L104.905 16.6846L110.362 24H108.021ZM115.422 22.2061L118.602 12.377H120.632L116.453 24H115.121L115.422 22.2061ZM112.769 12.377L116.045 22.2598L116.271 24H114.938L110.728 12.377H112.769ZM124.703 12.377V24H122.705V12.377H124.703ZM122.555 9.29395C122.555 8.97168 122.651 8.69954 122.845 8.47754C123.045 8.25553 123.339 8.14453 123.726 8.14453C124.105 8.14453 124.395 8.25553 124.596 8.47754C124.803 8.69954 124.907 8.97168 124.907 9.29395C124.907 9.60189 124.803 9.86686 124.596 10.0889C124.395 10.3037 124.105 10.4111 123.726 10.4111C123.339 10.4111 123.045 10.3037 122.845 10.0889C122.651 9.86686 122.555 9.60189 122.555 9.29395ZM134.661 20.917C134.661 20.6305 134.597 20.3656 134.468 20.1221C134.346 19.8714 134.092 19.6458 133.705 19.4453C133.326 19.2376 132.753 19.0586 131.986 18.9082C131.342 18.7721 130.758 18.611 130.235 18.4248C129.72 18.2386 129.279 18.013 128.914 17.748C128.556 17.4831 128.28 17.1715 128.087 16.8135C127.894 16.4554 127.797 16.0365 127.797 15.5566C127.797 15.0983 127.897 14.665 128.098 14.2568C128.305 13.8486 128.595 13.487 128.968 13.1719C129.347 12.8568 129.802 12.6097 130.332 12.4307C130.862 12.2516 131.453 12.1621 132.104 12.1621C133.035 12.1621 133.83 12.3268 134.489 12.6562C135.148 12.9857 135.653 13.4261 136.004 13.9775C136.355 14.5218 136.53 15.127 136.53 15.793H134.543C134.543 15.4707 134.446 15.1592 134.253 14.8584C134.067 14.5505 133.791 14.2962 133.426 14.0957C133.068 13.8952 132.627 13.7949 132.104 13.7949C131.553 13.7949 131.105 13.8809 130.762 14.0527C130.425 14.2174 130.178 14.4287 130.021 14.6865C129.87 14.9443 129.795 15.2165 129.795 15.5029C129.795 15.7178 129.831 15.9111 129.902 16.083C129.981 16.2477 130.117 16.4017 130.311 16.5449C130.504 16.681 130.776 16.8099 131.127 16.9316C131.478 17.0534 131.925 17.1751 132.47 17.2969C133.422 17.5117 134.206 17.7695 134.822 18.0703C135.438 18.3711 135.896 18.7399 136.197 19.1768C136.498 19.6136 136.648 20.1436 136.648 20.7666C136.648 21.2751 136.541 21.7406 136.326 22.1631C136.118 22.5856 135.814 22.9508 135.413 23.2588C135.019 23.5596 134.547 23.7959 133.995 23.9678C133.451 24.1325 132.839 24.2148 132.158 24.2148C131.134 24.2148 130.268 24.0322 129.559 23.667C128.85 23.3018 128.312 22.8291 127.947 22.249C127.582 21.6689 127.399 21.0566 127.399 20.4121H129.397C129.426 20.9564 129.584 21.3896 129.87 21.7119C130.157 22.027 130.507 22.2526 130.923 22.3887C131.338 22.5176 131.75 22.582 132.158 22.582C132.702 22.582 133.157 22.5104 133.522 22.3672C133.895 22.224 134.178 22.027 134.371 21.7764C134.564 21.5257 134.661 21.2393 134.661 20.917ZM141.418 12.377V24H139.42V12.377H141.418ZM139.27 9.29395C139.27 8.97168 139.366 8.69954 139.56 8.47754C139.76 8.25553 140.054 8.14453 140.44 8.14453C140.82 8.14453 141.11 8.25553 141.311 8.47754C141.518 8.69954 141.622 8.97168 141.622 9.29395C141.622 9.60189 141.518 9.86686 141.311 10.0889C141.11 10.3037 140.82 10.4111 140.44 10.4111C140.054 10.4111 139.76 10.3037 139.56 10.0889C139.366 9.86686 139.27 9.60189 139.27 9.29395ZM149.475 12.377V13.9023H143.19V12.377H149.475ZM145.317 9.55176H147.305V21.1211C147.305 21.515 147.366 21.8122 147.487 22.0127C147.609 22.2132 147.767 22.3457 147.96 22.4102C148.153 22.4746 148.361 22.5068 148.583 22.5068C148.748 22.5068 148.92 22.4925 149.099 22.4639C149.285 22.4281 149.424 22.3994 149.518 22.3779L149.528 24C149.371 24.0501 149.163 24.0967 148.905 24.1396C148.655 24.1898 148.35 24.2148 147.992 24.2148C147.505 24.2148 147.058 24.1182 146.649 23.9248C146.241 23.7314 145.915 23.4092 145.672 22.958C145.436 22.4997 145.317 21.8838 145.317 21.1104V9.55176ZM158.659 22.0127V16.0293C158.659 15.571 158.566 15.1735 158.38 14.8369C158.201 14.4932 157.929 14.2282 157.563 14.042C157.198 13.8558 156.747 13.7627 156.21 13.7627C155.709 13.7627 155.268 13.8486 154.889 14.0205C154.516 14.1924 154.223 14.418 154.008 14.6973C153.8 14.9766 153.696 15.2773 153.696 15.5996H151.709C151.709 15.1842 151.816 14.7725 152.031 14.3643C152.246 13.9561 152.554 13.5872 152.955 13.2578C153.363 12.9212 153.85 12.6562 154.416 12.4629C154.989 12.2624 155.626 12.1621 156.328 12.1621C157.173 12.1621 157.918 12.3053 158.562 12.5918C159.214 12.8783 159.723 13.3115 160.088 13.8916C160.46 14.4645 160.646 15.1842 160.646 16.0508V21.4648C160.646 21.8516 160.679 22.2633 160.743 22.7002C160.815 23.137 160.919 23.513 161.055 23.8281V24H158.981C158.881 23.7708 158.802 23.4665 158.745 23.0869C158.688 22.7002 158.659 22.3421 158.659 22.0127ZM159.003 16.9531L159.024 18.3496H157.016C156.45 18.3496 155.945 18.3962 155.501 18.4893C155.057 18.5752 154.685 18.7077 154.384 18.8867C154.083 19.0658 153.854 19.2913 153.696 19.5635C153.539 19.8285 153.46 20.14 153.46 20.498C153.46 20.8633 153.542 21.1963 153.707 21.4971C153.872 21.7979 154.119 22.0378 154.448 22.2168C154.785 22.3887 155.197 22.4746 155.684 22.4746C156.292 22.4746 156.829 22.3457 157.295 22.0879C157.76 21.8301 158.129 21.515 158.401 21.1426C158.681 20.7702 158.831 20.4085 158.853 20.0576L159.701 21.0137C159.651 21.3145 159.515 21.6475 159.293 22.0127C159.071 22.3779 158.774 22.7288 158.401 23.0654C158.036 23.3949 157.599 23.6706 157.091 23.8926C156.59 24.1074 156.024 24.2148 155.394 24.2148C154.606 24.2148 153.915 24.0609 153.32 23.7529C152.733 23.445 152.275 23.0332 151.945 22.5176C151.623 21.9948 151.462 21.4111 151.462 20.7666C151.462 20.1436 151.584 19.5957 151.827 19.123C152.071 18.6432 152.422 18.2458 152.88 17.9307C153.338 17.6084 153.89 17.3649 154.534 17.2002C155.179 17.0355 155.898 16.9531 156.693 16.9531H159.003Z" fill="white"/>
<path d="M172.453 14.1279V9.88477L170.959 14.1279H170.401L168.897 9.89551V14.1279H167.93V8.35938H169.133L170.68 12.6348L172.216 8.35938H173.419V14.1279H172.453ZM167.081 8.35938V9.22949H165.492V14.1279H164.514V9.22949H162.935V8.35938H167.081Z" fill="#00FE02"/>
</svg>
